<svg xmlns="http://www.w3.org/2000/svg" width="246" height="84" viewBox="0 0 246 84"><defs><clipPath id="a"><path data-name="Rechteck 70" d="M0 0h69.4v84H0z"/></clipPath></defs><g data-name="Gruppe 18" clip-path="url(#a)"><path data-name="Pfad 62" d="M34.7.82v82.361C28.4 83.181.8 67.405.8 44.152V.82z" fill="#fff"/></g><g data-name="Gruppe 19" clip-path="url(#a)"><path data-name="Pfad 63" d="M34.7.82v82.361c6.3 0 33.9-15.776 33.9-39.029V.82z" fill="#f9b200"/></g><g data-name="Gruppe 20" clip-path="url(#a)"><path data-name="Rechteck 72" d="M34.3 25.815h33.9V51.63H34.3z"/></g><g data-name="Gruppe 21" clip-path="url(#a)"><path data-name="Pfad 64" d="M16.8 53.165a.436.436 0 01-.4-.41v-9.321a.4.4 0 11.8 0v9.322c-.1.307-.2.41-.4.41"/></g><g data-name="Gruppe 22" clip-path="url(#a)"><path data-name="Pfad 65" d="M18.7 53.165a.436.436 0 01-.4-.41v-9.321a.4.4 0 11.8 0v9.322a.37.37 0 01-.4.41"/></g><g data-name="Gruppe 23" clip-path="url(#a)"><path data-name="Pfad 66" d="M14.8 53.166a.436.436 0 01-.4-.41v-8.5a.4.4 0 11.8 0v8.5a.37.37 0 01-.4.41"/></g><g data-name="Gruppe 24" clip-path="url(#a)"><path data-name="Pfad 67" d="M20.7 53.166a.436.436 0 01-.4-.41v-8.5a.4.4 0 11.8 0v8.5a.37.37 0 01-.4.41"/></g><g data-name="Gruppe 25" clip-path="url(#a)"><path data-name="Rechteck 78" d="M13 51.629h9.5v.82H13z"/></g><g data-name="Gruppe 26" clip-path="url(#a)"><path data-name="Rechteck 80" d="M13 49.99h9.5v.82H13z"/></g><g data-name="Gruppe 27" clip-path="url(#a)"><path data-name="Pfad 68" d="M13 58.185H6.7v-6.454l3.2-3.278V22.639l-3.2-3.278v-6.454h3.2v3.278H13v-3.278h3.2v3.278h3.2v-3.278h3.2v3.278h3.2v-3.278H29v6.454l-3.2 3.278v25.814l3.2 3.278v6.454h-6.3v-8.093a4.7 4.7 0 10-9.4 0v8.093z" fill="#c50a1d"/></g><g data-name="Gruppe 28" clip-path="url(#a)"><path data-name="Pfad 69" d="M29.2 58.595h-7.1v-8.5a4.3 4.3 0 10-8.6 0v8.5H6.3v-7.068l3.2-3.278V22.741l-3.2-3.278v-7.068h3.9v3.278h2.4v-3.278h3.9v3.278h2.4v-3.278h3.9v3.278h2.4v-3.278h3.9v7.068L26 22.741v25.508l3.2 3.278zm-6.3-.82h5.5v-5.839l-3.2-3.278V22.434l3.2-3.278v-5.839H26v3.278h-3.9v-3.278h-2.4v3.278h-3.9v-3.278h-2.4v3.278H9.5v-3.278H7.1v5.941l3.2 3.278v26.225l-3.2 3.278v5.839h5.5v-7.683a5.1 5.1 0 1110.2 0v7.58z"/></g><g data-name="Gruppe 29" clip-path="url(#a)"><path data-name="Rechteck 84" d="M15.8 25.815h1.6v8.093h-1.6z"/></g><g data-name="Gruppe 30" clip-path="url(#a)"><path data-name="Rechteck 86" d="M18.1 25.815h1.6v8.093h-1.6z"/></g><g data-name="Gruppe 31" clip-path="url(#a)"><path data-name="Rechteck 88" d="M33.9 0h1.6v83.795h-1.6z"/></g><g data-name="Gruppe 32" clip-path="url(#a)"><path data-name="Pfad 70" d="M67.8 1.639v43.332c0 13.214-7.8 22.429-14.4 27.966-8 6.659-16.3 9.527-18.8 9.527S23.8 79.6 15.8 72.937C9.4 67.4 1.6 58.083 1.6 44.971V1.639h66.2M69.4 0H0v44.971C0 70.683 28.3 84 34.7 84s34.7-13.317 34.7-39.029z"/></g><g data-name="Gruppe 34"><path data-name="Pfad 71" d="M96.291 38.381a2.035 2.035 0 00-.6-1.5 5.02 5.02 0 00-1.4-1 9.819 9.819 0 00-1.8-.8 16.18 16.18 0 01-1.8-1 4.673 4.673 0 01-1.4-1.4 3.7 3.7 0 01-.6-2.1 3.473 3.473 0 011.3-2.9 5.338 5.338 0 013.6-1.1 16.592 16.592 0 012.4.2 5.761 5.761 0 011.7.5l-.6 1.6a6.4 6.4 0 00-1.5-.5 7.845 7.845 0 00-2.2-.2 2.918 2.918 0 00-2.2.7 1.8 1.8 0 00-.7 1.5 1.678 1.678 0 00.6 1.4 5.02 5.02 0 001.4 1c.6.3 1.1.6 1.8.9a16.18 16.18 0 011.8 1 6.2 6.2 0 011.4 1.4 3.173 3.173 0 01.6 2 3.424 3.424 0 01-.4 1.8 4.508 4.508 0 01-1 1.4 4.608 4.608 0 01-1.7.9 7.316 7.316 0 01-2.2.3 10.063 10.063 0 01-2.7-.3 10.719 10.719 0 01-1.7-.6l.6-1.6a3.706 3.706 0 001.5.5 7.8 7.8 0 002.2.3 6.6 6.6 0 001.4-.1 2.22 2.22 0 001.1-.5 1.779 1.779 0 00.7-.8 1.16 1.16 0 00.4-1z"/></g><g data-name="Gruppe 35"><path data-name="Pfad 72" d="M113.715 28.478h-4.8v13.8h-1.8v-13.8h-4.8v-1.6h11.4z"/><path data-name="Pfad 73" d="M124.015 37.978h-5.7l-1.5 4.3h-1.8l5.8-15.7h.8l5.9 15.7h-1.9zm-5-1.6h4.5l-1.7-4.7-.5-2.3-.6 2.4z"/></g><g data-name="Gruppe 36"><path data-name="Pfad 74" d="M132.402 26.888c.3 0 .6-.1.9-.1h3.2a7.943 7.943 0 013.2.6 5.963 5.963 0 012.2 1.6 6.61 6.61 0 011.3 2.5 10.8 10.8 0 01.4 3.2 10.323 10.323 0 01-.4 3 7.939 7.939 0 01-1.3 2.6 8.362 8.362 0 01-2.3 1.8 8.553 8.553 0 01-3.4.7h-2.1a3.75 3.75 0 01-1.1-.1c-.3 0-.6 0-.7-.1v-15.7zm4.2 1.4h-2.3v12.5h2a6.689 6.689 0 002.6-.5 4.744 4.744 0 001.7-1.4 7.218 7.218 0 00.9-2 9.863 9.863 0 00.3-2.4 17.961 17.961 0 00-.2-2.2 6.982 6.982 0 00-.8-2 3.638 3.638 0 00-1.6-1.4 5.536 5.536 0 00-2.6-.6z"/></g><g data-name="Gruppe 37"><path data-name="Pfad 75" d="M158.267 28.484h-4.8v13.8h-1.8v-13.8h-4.8v-1.6h11.4v1.6z"/></g><g data-name="Gruppe 38"><path data-name="Pfad 76" d="M181.744 34.284l.3-3.1h-.1l-.9 2.5-3.3 5.7h-1l-3.5-5.8-1-2.4h-.1l.4 3v8h-2.7v-15.3h2.8l4.1 7 .7 1.8h.1l.7-1.8 3.9-7h2.7v15.4h-3v-8z"/><path data-name="Pfad 77" d="M189.144 34.584a9.215 9.215 0 011.7-5.9 5.738 5.738 0 014.8-2.1 6.527 6.527 0 012.9.6 5.264 5.264 0 012 1.6 8.3 8.3 0 011.2 2.5 11.488 11.488 0 01.4 3.3 9.215 9.215 0 01-1.7 5.9 5.869 5.869 0 01-4.8 2.1 6.527 6.527 0 01-2.9-.6 5.264 5.264 0 01-2-1.6 8.3 8.3 0 01-1.2-2.5 16.562 16.562 0 01-.4-3.3zm3.2 0a12.483 12.483 0 00.2 2.1 4.283 4.283 0 00.6 1.7 3.566 3.566 0 001 1.1 2.41 2.41 0 001.5.4 2.764 2.764 0 002.5-1.3 7.1 7.1 0 00.9-4.1 14.92 14.92 0 00-.2-2.1 4.924 4.924 0 00-.6-1.7 2.707 2.707 0 00-1-1.1 2.537 2.537 0 00-1.6-.4 2.764 2.764 0 00-2.5 1.3 8.445 8.445 0 00-.8 4.1z"/><path data-name="Pfad 78" d="M206.644 26.884h9.1v2.7h-6.1v3.6h5.6v2.6h-5.6v3.8h6.2v2.7h-9.3v-15.4z"/><path data-name="Pfad 79" d="M220.344 26.984c.3-.1.7-.1 1.1-.2a4.869 4.869 0 011.2-.1c.4 0 .8-.1 1.1-.1h1a14.919 14.919 0 012.1.2 6.191 6.191 0 011.9.7 3.25 3.25 0 011.3 1.3 4.648 4.648 0 01.5 2.1 4.964 4.964 0 01-.9 3.1 5.272 5.272 0 01-2.4 1.7l1.1.7 3.5 5.9h-3.5l-3.5-6-1.6-.3v6.3h-3v-15.3zm4.6 2.3h-.9a1.483 1.483 0 00-.7.1v4.5h1.3a3.173 3.173 0 002-.6 2.226 2.226 0 00.7-1.9 2.111 2.111 0 00-.6-1.6 2.969 2.969 0 00-1.8-.5z"/><path data-name="Pfad 80" d="M242.444 38.184a1.29 1.29 0 00-.5-1.1 4.11 4.11 0 00-1.3-.8c-.5-.2-1.1-.5-1.7-.7-.6-.3-1.2-.6-1.7-.9a4.357 4.357 0 01-1.3-1.4 4.648 4.648 0 01-.5-2.1 3.807 3.807 0 01.4-1.9 3.007 3.007 0 011.1-1.4 4.812 4.812 0 011.6-.8 6.648 6.648 0 012.1-.3 19.481 19.481 0 012.5.2 9.33 9.33 0 012 .7l-.9 2.5a5.712 5.712 0 00-1.5-.6 6.648 6.648 0 00-2.1-.3 2.537 2.537 0 00-1.6.4 1.382 1.382 0 00-.6 1.1 1.606 1.606 0 00.5 1.1 4.11 4.11 0 001.3.8c.5.3 1.1.5 1.7.8a9.5 9.5 0 011.7 1 4 4 0 011.8 3.5 4.638 4.638 0 01-.4 2.1 5.826 5.826 0 01-1.1 1.5 5.076 5.076 0 01-1.8.9 8.524 8.524 0 01-2.3.3 12.309 12.309 0 01-2.9-.3 10.784 10.784 0 01-1.9-.6l1-2.6.6.3a9.44 9.44 0 00.9.3 3.553 3.553 0 001 .2 5.059 5.059 0 003.2-.4 2.33 2.33 0 00.7-1.5z"/></g></svg>